<?xml version="1.0" encoding="utf-8"?>
<!-- Generator: Adobe Illustrator 26.0.1, SVG Export Plug-In . SVG Version: 6.00 Build 0)  -->
<svg version="1.1" id="Layer_1" xmlns="http://www.w3.org/2000/svg" xmlns:xlink="http://www.w3.org/1999/xlink" x="0px" y="0px"
	 viewBox="0 0 557 524.9" style="enable-background:new 0 0 557 524.9;" xml:space="preserve">
<style type="text/css">
	.st0{fill-rule:evenodd;clip-rule:evenodd;fill:#0CBB70;}
</style>
<path class="st0" d="M201,3.9c-43.2,0-83,23-104.6,60.4L18.9,198.5c-21.6,37.4-21.6,83.4,0,120.8l77.5,134.2
	c21.6,37.4,61.5,60.4,104.6,60.4h155c43.2,0,83-23,104.6-60.4l77.5-134.2c21.6-37.4,21.6-83.4,0-120.8L460.6,64.3
	C439,26.9,399.1,3.9,356,3.9H201z M356,84.4h-96.9c-15.5,0-25.2,16.8-17.4,30.2c23.9,41.4,47.9,82.7,71.9,124.2
	c7.2,12.5,7.2,27.8,0,40.3c-23.9,41.4-47.9,82.8-71.9,124.2c-7.8,13.4,1.9,30.2,17.4,30.2H356c14.4,0,27.7-7.7,34.9-20.1L468.3,279
	c7.2-12.5,7.2-27.8,0-40.3l-77.5-134.2C383.7,92.1,370.4,84.4,356,84.4z"/>
</svg>
